<svg width="299" height="54" viewBox="0 0 299 54" fill="none" xmlns="http://www.w3.org/2000/svg">
<path d="M49.2782 0.939981C26.7704 3.15109 22.0634 18.6 21.0792 25.2116C16.6361 11.1284 5.56762 9.23526 1.98034 9.00403L1.08887 8.94622L1.10313 9.84946C1.10313 10.0446 1.70933 29.1858 20.9366 31.368C20.9366 31.5053 20.9508 31.6354 20.958 31.7799C21.1577 35.8119 21.4572 41.8672 21.1006 45.8125C19.0181 44.2156 16.2653 42.7415 11.5155 42.7415H11.4442C7.80699 42.662 4.68328 43.6014 3.14282 45.2633C2.33693 46.1377 1.95894 47.2071 2.06592 48.4283C2.61506 51.6221 7.40761 53.0962 11.9149 53.1395C11.9862 53.1395 12.0647 53.1395 12.136 53.1395C16.2082 53.1395 21.0436 51.9906 22.2488 48.7896C23.8677 49.8445 26.2355 50.8489 28.917 50.2925V50.2564C28.5818 50.1047 28.2538 49.9096 27.8972 49.6711C27.455 49.3821 27.077 49.0858 26.7561 48.7318C25.0801 48.5656 23.6253 47.7707 22.6197 47.0337C22.6553 46.7663 22.691 46.4845 22.7195 46.1883C23.1189 42.1201 22.8122 35.8553 22.6054 31.7077C22.5911 31.4331 22.5769 31.1657 22.5698 30.9128C25.9288 30.8044 34.2017 29.8867 40.663 23.9326C46.6252 18.4338 50.184 10.1529 50.184 1.77095V0.853271L49.2782 0.939981ZM2.81476 10.7527C7.83552 11.3235 17.606 14.4379 20.5087 29.6483C5.43211 27.6034 3.15708 14.4379 2.81476 10.7527ZM20.8367 47.749C20.3304 50.3648 15.8659 51.4993 11.9292 51.4704C7.55025 51.427 4.00576 49.989 3.69909 48.2115C3.64204 47.525 3.85599 46.9397 4.34808 46.405C5.48917 45.1766 8.08513 44.4035 11.0448 44.4035C11.1732 44.4035 11.3016 44.4035 11.4299 44.4035H11.4941C16.3509 44.4035 18.7899 46.0293 20.8367 47.7201C20.8367 47.7274 20.8367 47.7346 20.8367 47.7418V47.749ZM39.5576 22.6898C33.4742 28.2971 25.6507 29.1352 22.4984 29.2364C22.4842 28.7956 22.4699 28.4343 22.4699 28.167C22.4699 27.2421 22.7694 5.71627 48.5223 2.68864C48.2726 10.283 44.9564 17.704 39.5576 22.6826V22.6898Z" fill="#445E73"/>
<path d="M85.7644 21.8227V25.5729C84.0242 24.4674 81.8419 24.135 80.2087 24.135C75.2522 24.135 71.1656 27.7262 71.1656 33.796C71.1656 39.2587 74.596 42.9583 80.1517 42.9583C82.2769 42.9583 84.9442 42.3514 86.6915 41.1374V44.8371C84.8943 45.8848 81.6208 46.4412 79.2816 46.4412C71.1086 46.4412 66.9722 40.9206 66.9722 33.8538C66.9722 26.4039 72.3067 20.7172 79.6097 20.7172C81.4069 20.7172 83.9672 21.0496 85.7644 21.8227Z" fill="#445E73"/>
<path d="M116.224 33.5792C116.224 40.8628 110.833 46.4412 103.48 46.4412C95.4137 46.4412 90.6211 40.8123 90.6211 33.5792C90.6211 26.3461 96.2338 20.7172 103.48 20.7172C110.726 20.7172 116.224 26.3461 116.224 33.5792ZM94.8146 33.5214C94.8146 38.8757 97.974 42.9583 103.48 42.9583C108.985 42.9583 112.138 38.6517 112.138 33.5214C112.138 28.391 108.757 24.1928 103.48 24.1928C98.2022 24.1928 94.8146 28.391 94.8146 33.5214Z" fill="#445E73"/>
<path d="M142.498 6.7062H146.527V45.892H143.532L142.876 42.4164L142.605 42.3007C140.536 45.1694 136.885 46.5495 133.398 46.5495C126.152 46.5495 121.195 41.636 121.195 33.9621C121.195 26.2883 126.209 20.7749 133.455 20.7749C136.236 20.7749 139.609 21.4903 142.227 24.2506L142.498 24.135V6.69897V6.7062ZM133.726 24.3084C128.548 24.3084 125.225 28.615 125.225 33.7453C125.225 38.8757 128.384 43.0161 133.833 43.0161C138.846 43.0161 142.441 38.7673 142.441 33.6297C142.441 28.4921 139.281 24.3011 133.726 24.3011V24.3084Z" fill="#445E73"/>
<path d="M175.475 33.3046C175.475 33.637 175.475 34.0777 175.418 34.4101H156.461C156.626 40.0969 160.548 43.1317 165.234 43.1317C168.336 43.1317 171.281 42.4164 174.384 40.0391V43.7387C171.88 45.5596 168.607 46.4412 165.176 46.4412C157.003 46.4412 152.211 41.1952 152.211 33.5286C152.211 26.3533 157.274 20.7244 164.192 20.7244C171.11 20.7244 175.468 26.2449 175.468 33.3046H175.475ZM156.519 31.4258H171.609C171.067 27.0109 168.45 24.0844 164.314 24.0844C160.177 24.0844 157.125 27.0614 156.526 31.4258H156.519Z" fill="#445E73"/>
<path d="M192.327 38.052C194.83 39.9813 198.425 41.0868 200.664 41.0868C203.061 41.0868 204.259 40.422 204.259 39.0997C204.259 35.5085 192.926 35.2339 192.926 27.8418C192.926 23.369 196.685 20.6088 202.076 20.6088C204.095 20.6088 207.247 21.1073 210.085 22.3213V28.2248C207.96 27.0109 205.179 26.1799 203.167 26.1799C201.156 26.1799 200.115 26.8447 200.115 28.0008C200.115 30.8117 211.333 30.9273 211.333 38.9263C211.333 42.9005 208.231 46.434 201.47 46.434C198.746 46.434 195.094 45.8848 192.32 44.3385V38.0447L192.327 38.052Z" fill="#445E73"/>
<path d="M239.347 33.3624V35.0171H222.081C222.516 39.3815 225.675 40.8122 229.377 40.8122C231.937 40.8122 234.768 40.2053 238.149 37.9436V43.8471C235.367 45.668 231.994 46.499 228.621 46.499C219.307 46.499 214.785 40.7038 214.785 33.4708C214.785 26.2377 219.742 20.5004 227.316 20.5004C234.89 20.5004 239.354 25.5223 239.354 33.3624H239.347ZM222.295 30.3853H232.593C231.994 27.6251 230.304 25.8619 227.58 25.8619C224.855 25.8619 222.951 27.7912 222.295 30.3853Z" fill="#445E73"/>
<path d="M267.796 33.3624V35.0171H250.53C250.965 39.3815 254.124 40.8122 257.825 40.8122C260.386 40.8122 263.217 40.2053 266.598 37.9436V43.8471C263.816 45.668 260.443 46.499 257.07 46.499C247.755 46.499 243.234 40.7038 243.234 33.4708C243.234 26.2377 248.19 20.5004 255.764 20.5004C263.338 20.5004 267.803 25.5223 267.803 33.3624H267.796ZM250.744 30.3853H261.042C260.443 27.6251 258.753 25.8619 256.028 25.8619C253.304 25.8619 251.4 27.7912 250.744 30.3853Z" fill="#445E73"/>
<path d="M291.723 6.70618H298.804C298.804 19.785 298.854 32.8132 298.854 45.892H293.299L292.322 43.0233C290.139 45.509 286.495 46.4989 283.657 46.4989C276.033 46.4989 271.618 41.3686 271.618 33.9693C271.618 26.1871 276.796 20.6159 283.985 20.6159C286.217 20.6159 289.105 21.1145 291.395 23.1522L291.666 22.986C291.666 17.5739 291.723 12.1111 291.723 6.70618ZM285.026 26.5195C281.267 26.5195 278.814 29.7205 278.814 33.6369C278.814 37.7773 281.16 40.5882 285.133 40.5882C288.784 40.5882 291.452 37.4955 291.452 33.5213C291.452 29.5471 289.162 26.5122 285.026 26.5122V26.5195Z" fill="#445E73"/>
</svg>
